<?xml version="1.0" encoding="iso-8859-1"?>
<!-- Generator: Adobe Illustrator 19.0.0, SVG Export Plug-In . SVG Version: 6.00 Build 0)  -->
<svg version="1.1" id="Capa_1" xmlns="http://www.w3.org/2000/svg" xmlns:xlink="http://www.w3.org/1999/xlink" x="0px" y="0px"
	 viewBox="0 0 472 472" style="enable-background:new 0 0 472 472;" xml:space="preserve">
<path style="fill:#7D8D9C;" d="M164,104h144c17.673,0,32,14.327,32,32v304c0,17.673-14.327,32-32,32H164c-17.673,0-32-14.327-32-32
	V136C132,118.327,146.327,104,164,104z"/>
<path style="fill:#87CEE9;" d="M132,152h208v272H132V152z"/>
<g>
	<path style="fill:#FDBD40;" d="M372,128c-4.418,0-8-3.582-8-8c-0.026-22.08-17.92-39.974-40-40c-4.418,0-8-3.582-8-8s3.582-8,8-8
		c30.913,0.035,55.965,25.087,56,56C380,124.418,376.418,128,372,128z"/>
	<path style="fill:#FDBD40;" d="M404,128c-4.418,0-8-3.582-8-8c-0.044-39.746-32.254-71.956-72-72c-4.418,0-8-3.582-8-8s3.582-8,8-8
		c48.577,0.057,87.943,39.423,88,88C412,124.418,408.418,128,404,128z"/>
	<path style="fill:#FDBD40;" d="M436,128c-4.418,0-8-3.582-8-8c-0.066-57.41-46.59-103.934-104-104c-4.418,0-8-3.582-8-8
		s3.582-8,8-8c66.243,0.075,119.925,53.757,120,120C444,124.418,440.418,128,436,128z"/>
	<path style="fill:#FDBD40;" d="M100,128c-4.418,0-8-3.582-8-8c0.035-30.913,25.087-55.965,56-56c4.418,0,8,3.582,8,8s-3.582,8-8,8
		c-22.08,0.026-39.974,17.92-40,40C108,124.418,104.418,128,100,128z"/>
	<path style="fill:#FDBD40;" d="M68,128c-4.418,0-8-3.582-8-8c0.057-48.577,39.423-87.943,88-88c4.418,0,8,3.582,8,8s-3.582,8-8,8
		c-39.746,0.044-71.956,32.254-72,72C76,124.418,72.418,128,68,128z"/>
	<path style="fill:#FDBD40;" d="M36,128c-4.418,0-8-3.582-8-8C28.071,53.755,81.755,0.071,148,0c4.418,0,8,3.582,8,8s-3.582,8-8,8
		C90.59,16.066,44.066,62.59,44,120C44,124.418,40.418,128,36,128z"/>
</g>
<g>
	<path style="fill:#E9686A;" d="M300,176h16v48h-16V176z"/>
	<path style="fill:#E9686A;" d="M268,192h16v32h-16V192z"/>
	<path style="fill:#E9686A;" d="M236,208h16v16h-16V208z"/>
</g>
<g>
</g>
<g>
</g>
<g>
</g>
<g>
</g>
<g>
</g>
<g>
</g>
<g>
</g>
<g>
</g>
<g>
</g>
<g>
</g>
<g>
</g>
<g>
</g>
<g>
</g>
<g>
</g>
<g>
</g>
</svg>
