<?xml version="1.0" encoding="utf-8"?>
<!-- Generator: Adobe Illustrator 19.0.0, SVG Export Plug-In . SVG Version: 6.00 Build 0)  -->
<svg version="1.1" id="Capa_1" xmlns="http://www.w3.org/2000/svg" xmlns:xlink="http://www.w3.org/1999/xlink" x="0px" y="0px"
	 viewBox="-69 161 472 472" style="enable-background:new -69 161 472 472;" xml:space="preserve">
<style type="text/css">
	.st0{fill:#7D8D9C;}
	.st1{fill:#87CEE9;}
	.st2{fill:#FDBD40;}
	.st3{fill:#E9686A;}
</style>
<path class="st0" d="M95,265h144c17.7,0,32,14.3,32,32v304c0,17.7-14.3,32-32,32H95c-17.7,0-32-14.3-32-32V297
	C63,279.3,77.3,265,95,265z"/>
<path class="st1" d="M63,313h208v272H63V313z"/>
<g>
	<path class="st2" d="M303,542c-4.4,0-8-3.6-8-8c0-22.1-17.9-40-40-40c-4.4,0-8-3.6-8-8s3.6-8,8-8c30.9,0,56,25.1,56,56
		C311,538.4,307.4,542,303,542z"/>
	<path class="st2" d="M335,542c-4.4,0-8-3.6-8-8c0-39.7-32.3-72-72-72c-4.4,0-8-3.6-8-8s3.6-8,8-8c48.6,0.1,87.9,39.4,88,88
		C343,538.4,339.4,542,335,542z"/>
	<path class="st2" d="M367,542c-4.4,0-8-3.6-8-8c-0.1-57.4-46.6-103.9-104-104c-4.4,0-8-3.6-8-8s3.6-8,8-8
		c66.2,0.1,119.9,53.8,120,120C375,538.4,371.4,542,367,542z"/>
	<path class="st2" d="M31,542c-4.4,0-8-3.6-8-8c0-30.9,25.1-56,56-56c4.4,0,8,3.6,8,8s-3.6,8-8,8c-22.1,0-40,17.9-40,40
		C39,538.4,35.4,542,31,542z"/>
	<path class="st2" d="M-1,542c-4.4,0-8-3.6-8-8c0.1-48.6,39.4-87.9,88-88c4.4,0,8,3.6,8,8s-3.6,8-8,8c-39.7,0-72,32.3-72,72
		C7,538.4,3.4,542-1,542z"/>
	<path class="st2" d="M-33,542c-4.4,0-8-3.6-8-8c0.1-66.2,53.8-119.9,120-120c4.4,0,8,3.6,8,8s-3.6,8-8,8
		c-57.4,0.1-103.9,46.6-104,104C-25,538.4-28.6,542-33,542z"/>
</g>
<g>
	<path class="st3" d="M231,337h16v48h-16V337z"/>
	<path class="st3" d="M199,353h16v32h-16V353z"/>
	<path class="st3" d="M167,369h16v16h-16V369z"/>
</g>
</svg>
