<svg height="464pt" viewBox="-25 0 464 464" width="464pt" xmlns="http://www.w3.org/2000/svg"><path d="m286.222656 464h-160c-17.671875 0-32-14.328125-32-32v-400c0-17.671875 14.328125-32 32-32h160c17.675782 0 32 14.328125 32 32v400c0 17.671875-14.324218 32-32 32zm0 0" fill="#394d5c"/><path d="m222.222656 416c0 8.835938-7.164062 16-16 16-8.835937 0-16-7.164062-16-16s7.164063-16 16-16c8.835938 0 16 7.164062 16 16zm0 0" fill="#7d8d9c"/><path d="m190.222656 24h64v16h-64zm0 0" fill="#7d8d9c"/><path d="m158.222656 24h16v16h-16zm0 0" fill="#7d8d9c"/><path d="m94.222656 64h224v304h-224zm0 0" fill="#cdeef6"/><path d="m58.34375 269.65625c-36.113281-36.121094-15.792969-75.519531 0-91.3125l11.3125 11.3125-5.65625-5.65625 5.679688 5.601562c-3.496094 3.535157-33.191407 35.527344 0 68.703126zm0 0" fill="#7fcac9"/><path d="m32.566406 293.65625c-22.398437-22.398438-33.3125-46.398438-32.5273435-71.542969 1.2421875-39.738281 31.6015625-66.96875 32.8867185-68.113281l10.59375 12-5.296875-6 5.304688 5.984375c-.265625.238281-26.542969 24-27.496094 56.757813-.601562 20.464843 8.800781 40.523437 27.847656 59.601562zm0 0" fill="#7fcac9"/><path d="m355.878906 269.65625-11.3125-11.3125c33.953125-33.953125 1.402344-67.28125 0-68.6875l11.3125-11.3125c15.792969 15.792969 36.113282 55.191406 0 91.3125zm0 0" fill="#7fcac9"/><path d="m381.65625 293.65625-11.3125-11.3125c19.078125-19.078125 28.449219-39.144531 27.878906-59.601562-.960937-32.757813-27.238281-56.519532-27.503906-56.757813l10.601562-12c1.289063 1.144531 31.648438 28.375 32.886719 68.113281.761719 25.101563-10.183593 49.191406-32.550781 71.558594zm0 0" fill="#7fcac9"/><path d="m285.238281 168c.625-2.621094.953125-5.304688.984375-8 1.074219-16.492188-11.339844-30.769531-27.824218-32-3.019532.046875-6 .65625-8.800782 1.792969-4.109375-19-20.476562-32.863281-39.894531-33.792969-20.65625 1.128906-37.648437 16.664062-40.625 37.136719-4.324219-3.292969-9.597656-5.09375-15.03125-5.136719-16.480469 1.230469-28.894531 15.507812-27.824219 32 .03125 2.695312.363282 5.378906.984375 8zm0 0" fill="#7cb8eb"/><g fill="#5a6470"><path d="m142.222656 240h16v88h-16zm0 0"/><path d="m150.222656 248c-2.515625 0-4.886718-1.1875-6.398437-3.199219l-24-32c-1.820313-2.425781-2.113281-5.667969-.757813-8.378906 1.355469-2.710937 4.125-4.421875 7.15625-4.421875h48c3.03125 0 5.800782 1.710938 7.15625 4.421875 1.355469 2.710937 1.0625 5.953125-.753906 8.378906l-24 32c-1.511719 2.011719-3.882812 3.199219-6.402344 3.199219zm-8-32 8 10.664062 8-10.664062zm0 0"/><path d="m174.222656 296h16v32h-16zm0 0"/><path d="m206.222656 280h16v48h-16zm0 0"/><path d="m238.222656 264h16v64h-16zm0 0"/><path d="m270.222656 248h16v80h-16zm0 0"/></g></svg>